<svg width="48" xmlns="http://www.w3.org/2000/svg" height="48" fill="none"><defs><clipPath id="a" class="frame-clip frame-clip-def"><rect rx="0" ry="0" width="48" height="48"/></clipPath></defs><g clip-path="url(#a)"><g class="fills"><rect rx="0" ry="0" width="48" height="48" class="frame-background"/></g><g style="fill: rgb(0, 0, 0);" class="frame-children"><path d="M.881 21.881a3.004 3.004 0 0 0 0 4.247l12 12a3.004 3.004 0 0 0 4.247 0 3.004 3.004 0 0 0 0-4.247L10.247 27H45c1.659 0 3-1.341 3-3s-1.341-3-3-3H10.247l6.881-6.881a3.004 3.004 0 0 0 0-4.247 3.004 3.004 0 0 0-4.247 0l-12 12.009Z" style="fill: rgb(255, 255, 255); fill-opacity: 1;" class="fills"/></g></g></svg>