<svg width="72" xmlns="http://www.w3.org/2000/svg" height="72" fill="none"><defs><clipPath id="a" class="frame-clip frame-clip-def"><rect rx="0" ry="0" width="72" height="72"/></clipPath></defs><g clip-path="url(#a)"><g class="fills"><rect rx="0" ry="0" width="72" height="72" class="frame-background"/></g><g style="fill: rgb(0, 0, 0);" class="frame-children"><path d="M36 72c19.882 0 36-16.118 36-36S55.882 0 36 0 0 16.118 0 36s16.118 36 36 36Zm-4.5-45v18c0 2.489-2.011 4.5-4.5 4.5a4.495 4.495 0 0 1-4.5-4.5V27c0-2.489 2.011-4.5 4.5-4.5s4.5 2.011 4.5 4.5Zm18 0v18c0 2.489-2.011 4.5-4.5 4.5a4.495 4.495 0 0 1-4.5-4.5V27c0-2.489 2.011-4.5 4.5-4.5s4.5 2.011 4.5 4.5Z" style="fill: rgb(255, 255, 255); fill-opacity: 1;" class="fills"/></g></g></svg>