<svg width="40" xmlns="http://www.w3.org/2000/svg" height="35.556" fill="none"><defs><clipPath id="a" class="frame-clip frame-clip-def"><rect rx="0" ry="0" width="40" height="35.556"/></clipPath></defs><g clip-path="url(#a)"><g class="fills"><rect rx="0" ry="0" width="40" height="35.556" class="frame-background"/></g><g style="fill: rgb(0, 0, 0);" class="frame-children"><path d="M37.764 19.972a2.24 2.24 0 0 0 2.222-2.229c.07-.625-.208-1.18-.764-1.667l-3.666-3.229V4.444a2.22 2.22 0 0 0-2.223-2.222h-2.222a2.22 2.22 0 0 0-2.222 2.222v2.549L21.493.486C21.076.139 20.521 0 20.035 0s-1.042.069-1.528.556L.694 16.076A2.26 2.26 0 0 0 0 17.743a2.2 2.2 0 0 0 2.222 2.229h2.222v4.84c-.006.063-.006.126-.006.195v7.771a2.777 2.777 0 0 0 2.777 2.778h1.111c.084 0 .167-.007.25-.014.105.007.209.014.313.014H12.778a2.777 2.777 0 0 0 2.778-2.778v-6.111a2.22 2.22 0 0 1 2.222-2.223h4.444a2.22 2.22 0 0 1 2.222 2.223v6.111a2.778 2.778 0 0 0 2.778 2.778H31.146c.097 0 .194 0 .292-.007.076.007.152.007.229.007h1.111a2.777 2.777 0 0 0 2.778-2.778v-1.125c.02-.181.034-.368.034-.563l-.048-11.125 2.222.007Z" style="fill: rgb(255, 255, 255); fill-opacity: 1;" class="fills"/></g></g></svg>