<svg width="32" xmlns="http://www.w3.org/2000/svg" height="32" fill="none"><defs><clipPath id="a" class="frame-clip frame-clip-def"><rect rx="0" ry="0" width="32" height="32"/></clipPath></defs><g clip-path="url(#a)"><g class="fills"><rect rx="0" ry="0" width="32" height="32" class="frame-background"/></g><g style="fill: rgb(0, 0, 0);" class="frame-children"><path d="M0 16C0 7.163 7.163 0 16 0s16 7.163 16 16-7.163 16-16 16S0 24.837 0 16Zm11.769-6.806A1.498 1.498 0 0 0 11 10.5v11c0 .544.294 1.044.769 1.306.475.263 1.05.257 1.518-.031l9-5.5c.444-.275.719-.756.719-1.281 0-.525-.275-1.006-.719-1.281l-9-5.5a1.483 1.483 0 0 0-1.518-.019Z" style="fill: rgb(255, 255, 255); fill-opacity: 1;" class="fills"/></g></g></svg>