<svg width="40" xmlns="http://www.w3.org/2000/svg" height="40" fill="none"><defs><clipPath id="a" class="frame-clip frame-clip-def"><rect rx="0" ry="0" width="40" height="40"/></clipPath></defs><g clip-path="url(#a)"><g class="fills"><rect rx="0" ry="0" width="40" height="40" class="frame-background"/></g><g style="fill: rgb(0, 0, 0);" class="frame-children"><path d="M.469 5c0-1.383 1.117-2.5 2.5-2.5h30c1.383 0 2.5 1.117 2.5 2.5s-1.117 2.5-2.5 2.5h-30A2.497 2.497 0 0 1 .469 5Zm15 10c0-1.383 1.117-2.5 2.5-2.5h15c1.383 0 2.5 1.117 2.5 2.5s-1.117 2.5-2.5 2.5h-15a2.497 2.497 0 0 1-2.5-2.5Zm2.5 7.5h15c1.383 0 2.5 1.117 2.5 2.5s-1.117 2.5-2.5 2.5h-15a2.497 2.497 0 0 1-2.5-2.5c0-1.383 1.117-2.5 2.5-2.5ZM.469 35c0-1.383 1.117-2.5 2.5-2.5h30c1.383 0 2.5 1.117 2.5 2.5s-1.117 2.5-2.5 2.5h-30a2.497 2.497 0 0 1-2.5-2.5Zm.015-14.016c-.64-.5-.64-1.476 0-1.976l7.961-6.195c.821-.641 2.016-.055 2.016.984v12.398c0 1.039-1.195 1.625-2.016.985L.484 20.984Z" style="fill: rgb(255, 255, 255); fill-opacity: 1;" class="fills"/></g></g></svg>