<svg width="32" xmlns="http://www.w3.org/2000/svg" height="32" fill="none"><defs><clipPath id="a" class="frame-clip frame-clip-def"><rect rx="0" ry="0" width="32" height="32"/></clipPath></defs><g clip-path="url(#a)"><g class="fills"><rect rx="0" ry="0" width="32" height="32" class="frame-background"/></g><g style="fill: rgb(0, 0, 0);" class="frame-children"><path d="M26 13c0 2.869-.931 5.519-2.5 7.669l7.913 7.918a2.004 2.004 0 0 1 0 2.832 2.004 2.004 0 0 1-2.832 0L20.669 23.5c-2.15 1.575-4.8 2.5-7.669 2.5-7.181 0-13-5.819-13-13S5.819 0 13 0s13 5.819 13 13Zm-13 9a9 9 0 0 0 9-9 9 9 0 0 0-9-9 9 9 0 0 0-9 9 9 9 0 0 0 9 9Z" style="fill: rgb(255, 255, 255); fill-opacity: 1;" class="fills"/></g></g></svg>