<svg width="40" xmlns="http://www.w3.org/2000/svg" height="45.714" fill="none"><defs><clipPath id="a" class="frame-clip frame-clip-def"><rect rx="0" ry="0" width="40" height="45.714"/></clipPath></defs><g clip-path="url(#a)"><g class="fills"><rect rx="0" ry="0" width="40" height="45.714" class="frame-background"/></g><g style="fill: rgb(0, 0, 0);" class="frame-children"><path d="M20 22.857c6.312 0 11.429-5.117 11.429-11.428C31.429 5.117 26.312 0 20 0S8.571 5.117 8.571 11.429c0 6.311 5.117 11.428 11.429 11.428Zm-4.08 4.286C7.125 27.143 0 34.268 0 43.062a2.652 2.652 0 0 0 2.652 2.652h34.696A2.652 2.652 0 0 0 40 43.062c0-8.794-7.125-15.919-15.92-15.919h-8.16Z" style="fill: rgb(255, 255, 255); fill-opacity: 1;" class="fills"/></g></g></svg>